<?xml version="1.0" standalone="no"?>
<!DOCTYPE svg PUBLIC "-//W3C//DTD SVG 20010904//EN"
 "http://www.w3.org/TR/2001/REC-SVG-20010904/DTD/svg10.dtd">
<svg version="1.0" xmlns="http://www.w3.org/2000/svg"
 width="512.000000pt" height="512.000000pt" viewBox="0 0 512.000000 512.000000"
 preserveAspectRatio="xMidYMid meet">
<metadata>
Created by potrace 1.11, written by Peter Selinger 2001-2013
</metadata>
<g transform="translate(0.000000,512.000000) scale(0.100000,-0.100000)"
fill="#000000" stroke="none">
<path d="M1877 4667 c-127 -13 -274 -86 -364 -179 -40 -42 -113 -149 -283
-415 l-85 -133 -297 0 c-164 0 -300 0 -303 -1 -63 -11 -145 -37 -204 -66 -104
-50 -222 -168 -273 -273 -72 -148 -68 -58 -65 -1425 l2 -1230 22 -65 c81 -237
284 -403 523 -428 74 -8 4012 -7 4050 1 240 49 416 202 493 427 l22 65 3 1222
c3 1360 6 1284 -65 1431 -69 142 -224 273 -374 316 -87 24 -86 24 -404 25
l-300 1 -139 218 c-77 119 -157 241 -178 269 -78 106 -211 194 -348 229 -57
15 -144 17 -715 18 -357 1 -681 -2 -718 -7z m903 -887 c147 -26 259 -65 400
-137 342 -175 606 -508 705 -887 15 -56 19 -77 30 -150 4 -21 9 -48 11 -60 7
-34 6 -276 -1 -331 -43 -330 -180 -612 -409 -840 -175 -175 -371 -291 -591
-350 -33 -9 -67 -19 -75 -22 -8 -4 -18 -6 -22 -5 -4 1 -31 -3 -60 -9 -72 -14
-268 -18 -348 -8 -112 15 -133 18 -205 38 -388 106 -701 365 -879 728 -72 145
-129 335 -141 473 -7 72 -7 298 0 330 3 14 7 43 9 65 19 166 109 402 218 564
228 342 581 562 978 610 88 10 300 6 380 -9z m1683 -373 c113 -23 167 -190 90
-285 -48 -59 -71 -67 -225 -70 -156 -3 -203 6 -253 49 -58 52 -72 132 -36 214
24 52 51 76 106 89 44 12 264 13 318 3z"/>
<path d="M2465 3173 c-103 -14 -245 -70 -334 -130 -106 -73 -222 -214 -276
-336 -64 -145 -83 -329 -51 -482 59 -283 254 -504 522 -594 222 -74 475 -35
667 103 172 122 285 300 327 513 12 59 10 249 -4 302 -77 313 -283 530 -574
606 -62 16 -218 26 -277 18z"/>
</g>
</svg>
